name C:\Users\u0101727\Documents\MyRepositories\upper-imu-dc\OpenSim\subject0\MA\ResultsMA\grid_4nodes_9dim\angles_19.mot
datacolumns 10
datarows 42
range 1900.01000000 1900.42000000
endheader 
time	clav_prot	clav_elev	scapula_abduction	scapula_elevation	scapula_upward_rot	scapula_winging	plane_elv	shoulder_elv	axial_rot	
       1900.01000000	        -50.00000000	        -10.00000000	         15.00000000	        -10.00000000	         60.00000000	        -10.00000000	         30.00000000	        100.00000000	         30.00000000	
       1900.02000000	        -38.33333333	        -10.00000000	         15.00000000	        -10.00000000	         60.00000000	        -10.00000000	         30.00000000	        100.00000000	         30.00000000	
       1900.03000000	        -26.66666667	        -10.00000000	         15.00000000	        -10.00000000	         60.00000000	        -10.00000000	         30.00000000	        100.00000000	         30.00000000	
       1900.04000000	        -15.00000000	        -10.00000000	         15.00000000	        -10.00000000	         60.00000000	        -10.00000000	         30.00000000	        100.00000000	         30.00000000	
       1900.05000000	        -50.00000000	          0.00000000	         15.00000000	        -10.00000000	         60.00000000	        -10.00000000	         30.00000000	        100.00000000	         30.00000000	
       1900.06000000	        -38.33333333	          0.00000000	         15.00000000	        -10.00000000	         60.00000000	        -10.00000000	         30.00000000	        100.00000000	         30.00000000	
       1900.07000000	        -26.66666667	          0.00000000	         15.00000000	        -10.00000000	         60.00000000	        -10.00000000	         30.00000000	        100.00000000	         30.00000000	
       1900.08000000	        -15.00000000	          0.00000000	         15.00000000	        -10.00000000	         60.00000000	        -10.00000000	         30.00000000	        100.00000000	         30.00000000	
       1900.09000000	        -50.00000000	         10.00000000	         15.00000000	        -10.00000000	         60.00000000	        -10.00000000	         30.00000000	        100.00000000	         30.00000000	
       1900.10000000	        -38.33333333	         10.00000000	         15.00000000	        -10.00000000	         60.00000000	        -10.00000000	         30.00000000	        100.00000000	         30.00000000	
       1900.11000000	        -26.66666667	         10.00000000	         15.00000000	        -10.00000000	         60.00000000	        -10.00000000	         30.00000000	        100.00000000	         30.00000000	
       1900.12000000	        -15.00000000	         10.00000000	         15.00000000	        -10.00000000	         60.00000000	        -10.00000000	         30.00000000	        100.00000000	         30.00000000	
       1900.13000000	        -50.00000000	         20.00000000	         15.00000000	        -10.00000000	         60.00000000	        -10.00000000	         30.00000000	        100.00000000	         30.00000000	
       1900.14000000	        -38.33333333	         20.00000000	         15.00000000	        -10.00000000	         60.00000000	        -10.00000000	         30.00000000	        100.00000000	         30.00000000	
       1900.15000000	        -26.66666667	         20.00000000	         15.00000000	        -10.00000000	         60.00000000	        -10.00000000	         30.00000000	        100.00000000	         30.00000000	
       1900.16000000	        -15.00000000	         20.00000000	         15.00000000	        -10.00000000	         60.00000000	        -10.00000000	         30.00000000	        100.00000000	         30.00000000	
       1900.17000000	        -50.00000000	        -10.00000000	        -40.00000000	         -3.33333333	         60.00000000	        -10.00000000	         30.00000000	        100.00000000	         30.00000000	
       1900.18000000	        -38.33333333	        -10.00000000	        -40.00000000	         -3.33333333	         60.00000000	        -10.00000000	         30.00000000	        100.00000000	         30.00000000	
       1900.19000000	        -26.66666667	        -10.00000000	        -40.00000000	         -3.33333333	         60.00000000	        -10.00000000	         30.00000000	        100.00000000	         30.00000000	
       1900.20000000	        -15.00000000	        -10.00000000	        -40.00000000	         -3.33333333	         60.00000000	        -10.00000000	         30.00000000	        100.00000000	         30.00000000	
       1900.21000000	        -50.00000000	          0.00000000	        -40.00000000	         -3.33333333	         60.00000000	        -10.00000000	         30.00000000	        100.00000000	         30.00000000	
       1900.22000000	        -38.33333333	          0.00000000	        -40.00000000	         -3.33333333	         60.00000000	        -10.00000000	         30.00000000	        100.00000000	         30.00000000	
       1900.23000000	        -26.66666667	          0.00000000	        -40.00000000	         -3.33333333	         60.00000000	        -10.00000000	         30.00000000	        100.00000000	         30.00000000	
       1900.24000000	        -15.00000000	          0.00000000	        -40.00000000	         -3.33333333	         60.00000000	        -10.00000000	         30.00000000	        100.00000000	         30.00000000	
       1900.25000000	        -50.00000000	         10.00000000	        -40.00000000	         -3.33333333	         60.00000000	        -10.00000000	         30.00000000	        100.00000000	         30.00000000	
       1900.26000000	        -38.33333333	         10.00000000	        -40.00000000	         -3.33333333	         60.00000000	        -10.00000000	         30.00000000	        100.00000000	         30.00000000	
       1900.27000000	        -26.66666667	         10.00000000	        -40.00000000	         -3.33333333	         60.00000000	        -10.00000000	         30.00000000	        100.00000000	         30.00000000	
       1900.28000000	        -15.00000000	         10.00000000	        -40.00000000	         -3.33333333	         60.00000000	        -10.00000000	         30.00000000	        100.00000000	         30.00000000	
       1900.29000000	        -50.00000000	         20.00000000	        -40.00000000	         -3.33333333	         60.00000000	        -10.00000000	         30.00000000	        100.00000000	         30.00000000	
       1900.30000000	        -38.33333333	         20.00000000	        -40.00000000	         -3.33333333	         60.00000000	        -10.00000000	         30.00000000	        100.00000000	         30.00000000	
       1900.31000000	        -26.66666667	         20.00000000	        -40.00000000	         -3.33333333	         60.00000000	        -10.00000000	         30.00000000	        100.00000000	         30.00000000	
       1900.32000000	        -15.00000000	         20.00000000	        -40.00000000	         -3.33333333	         60.00000000	        -10.00000000	         30.00000000	        100.00000000	         30.00000000	
       1900.33000000	        -50.00000000	        -10.00000000	        -21.66666667	         -3.33333333	         60.00000000	        -10.00000000	         30.00000000	        100.00000000	         30.00000000	
       1900.34000000	        -38.33333333	        -10.00000000	        -21.66666667	         -3.33333333	         60.00000000	        -10.00000000	         30.00000000	        100.00000000	         30.00000000	
       1900.35000000	        -26.66666667	        -10.00000000	        -21.66666667	         -3.33333333	         60.00000000	        -10.00000000	         30.00000000	        100.00000000	         30.00000000	
       1900.36000000	        -15.00000000	        -10.00000000	        -21.66666667	         -3.33333333	         60.00000000	        -10.00000000	         30.00000000	        100.00000000	         30.00000000	
       1900.37000000	        -50.00000000	          0.00000000	        -21.66666667	         -3.33333333	         60.00000000	        -10.00000000	         30.00000000	        100.00000000	         30.00000000	
       1900.38000000	        -38.33333333	          0.00000000	        -21.66666667	         -3.33333333	         60.00000000	        -10.00000000	         30.00000000	        100.00000000	         30.00000000	
       1900.39000000	        -26.66666667	          0.00000000	        -21.66666667	         -3.33333333	         60.00000000	        -10.00000000	         30.00000000	        100.00000000	         30.00000000	
       1900.40000000	        -15.00000000	          0.00000000	        -21.66666667	         -3.33333333	         60.00000000	        -10.00000000	         30.00000000	        100.00000000	         30.00000000	
       1900.41000000	        -50.00000000	         10.00000000	        -21.66666667	         -3.33333333	         60.00000000	        -10.00000000	         30.00000000	        100.00000000	         30.00000000	
       1900.42000000	        -38.33333333	         10.00000000	        -21.66666667	         -3.33333333	         60.00000000	        -10.00000000	         30.00000000	        100.00000000	         30.00000000	
